<svg width="27" height="28" viewBox="0 0 27 28" fill="none" xmlns="http://www.w3.org/2000/svg">
<path d="M13.3695 27.0199C20.201 27.0199 25.739 21.1435 25.739 13.8945C25.739 6.64551 20.201 0.769043 13.3695 0.769043C6.53802 0.769043 1 6.64551 1 13.8945C1 21.1435 6.53802 27.0199 13.3695 27.0199Z" stroke="white" stroke-width="0.74" stroke-linecap="round"/>
<path fill-rule="evenodd" clip-rule="evenodd" d="M15.0351 8.20864C15.0351 8.20864 13.1991 8.08137 12.7284 9.93453C12.7284 9.93453 12.558 10.4207 12.5814 11.6182L10.8955 11.6234V13.19L12.5814 13.1848V19.5822H14.7304V13.19L16.4348 13.19V11.6182L14.7304 11.6182V10.7645C14.7304 10.211 15.0201 9.6817 15.8677 9.6817H16.6679V8.20864H15.0351Z" fill="white"/>
</svg>
