<svg width="24" height="27" viewBox="0 0 24 27" fill="none" xmlns="http://www.w3.org/2000/svg">
<path d="M22.9993 20.0912V23.9259C23.0006 24.2819 22.9375 24.6343 22.814 24.9605C22.6906 25.2866 22.5096 25.5794 22.2826 25.8201C22.0556 26.0608 21.7876 26.244 21.4958 26.358C21.2039 26.4721 20.8947 26.5144 20.5879 26.4824C17.1841 26.055 13.9145 24.7109 11.0418 22.5582C8.36914 20.5957 6.10319 17.9773 4.40487 14.8888C2.53545 11.5542 1.37207 7.75757 1.00898 3.80657C0.981336 3.45309 1.01769 3.09684 1.11572 2.76049C1.21376 2.42414 1.37132 2.11507 1.57839 1.85294C1.78546 1.59082 2.03749 1.38139 2.31843 1.23799C2.59938 1.09459 2.90309 1.02036 3.21023 1.02002H6.52869C7.06551 1.01392 7.58594 1.23359 7.99297 1.63809C8.4 2.04259 8.66586 2.60432 8.74099 3.21858C8.88106 4.44577 9.14081 5.65071 9.5153 6.81041C9.66413 7.26792 9.69634 7.76514 9.60812 8.24315C9.51989 8.72117 9.31494 9.15994 9.01753 9.50748L7.61272 11.1308C9.18739 14.3309 11.4803 16.9806 14.2496 18.8002L15.6545 17.1769C15.9552 16.8332 16.3349 16.5964 16.7486 16.4944C17.1622 16.3925 17.5925 16.4297 17.9884 16.6017C18.992 17.0344 20.0348 17.3346 21.0967 17.4964C21.6341 17.584 22.1248 17.8968 22.4756 18.3752C22.8264 18.8536 23.0128 19.4644 22.9993 20.0912Z" stroke="white" stroke-linecap="round" stroke-linejoin="round"/>
</svg>
