<svg width="122" height="122" viewBox="0 0 122 122" fill="none" xmlns="http://www.w3.org/2000/svg">
<path d="M116.889 0.0221255C103.358 0.0221255 67.5885 0 67.5885 0C63.7715 0 60.1204 1.5156 57.4209 4.21491L4.21529 57.4157C1.51573 60.115 0 63.7657 0 67.5823C0 67.5823 0 109.433 0 119.732C0 120.982 1.01787 122 2.27913 122H4.27061C4.27061 122 4.03827 122 4.01614 121.989C1.68169 121.513 2.73275 119.356 3.67317 118.371L22.4926 99.4873H22.5147C48.1163 73.8992 73.7178 48.3 99.3193 22.7008L117.785 3.40733C118.161 3.02013 118.648 2.80994 119.146 2.76569C120.02 2.69931 120.805 3.2967 121.159 4.09322L121.989 5.88538V5.13312C121.989 2.31211 119.71 0.0221255 116.889 0.0221255Z" fill="url(#paint0_linear_244_2)"/>
<path d="M24.2094 61.39C23.6678 60.9271 23.0881 60.7228 22.4703 60.777C21.8575 60.8262 21.2116 61.1893 20.5325 61.8661C20.0999 62.2973 19.7979 62.7036 19.6265 63.085C19.4552 63.4564 19.3918 63.7953 19.4365 64.1017C19.4812 64.4081 19.6139 64.677 19.8345 64.9084C20.0099 65.1045 20.2106 65.2405 20.4364 65.3162C20.6623 65.3818 20.9209 65.3898 21.2123 65.34C21.4987 65.2852 21.8228 65.1728 22.1846 65.0026C22.5465 64.8325 22.9486 64.6021 23.3911 64.3116L24.9294 63.3197C25.9651 62.6484 26.9351 62.1579 27.8396 61.848C28.7441 61.5381 29.5906 61.3913 30.379 61.4077C31.1624 61.419 31.8929 61.5834 32.5703 61.9009C33.2528 62.2134 33.8899 62.6614 34.4815 63.2449C35.4893 64.2661 36.0926 65.3794 36.2915 66.5851C36.4905 67.7907 36.3051 69.0434 35.7355 70.3432C35.1709 71.6379 34.2347 72.9371 32.9268 74.2407C31.5837 75.5794 30.2136 76.549 28.8165 77.1493C27.4244 77.7447 26.0406 77.9056 24.665 77.6322C23.2894 77.3487 21.9548 76.5631 20.6612 75.2753L24.6452 71.3043C25.1416 71.7521 25.6559 72.0317 26.1881 72.143C26.7202 72.2544 27.2602 72.2025 27.808 71.9875C28.3607 71.7674 28.9037 71.3917 29.437 70.8602C29.8847 70.414 30.2043 69.9851 30.3958 69.5736C30.5873 69.1621 30.6632 68.7805 30.6236 68.4289C30.584 68.0773 30.4414 67.7733 30.1957 67.5167C29.9551 67.2853 29.6715 67.1568 29.3451 67.1311C29.0188 67.0955 28.6169 67.1752 28.1394 67.3702C27.657 67.5603 27.0664 67.8782 26.3676 68.324L24.4974 69.5263C22.8334 70.5933 21.2605 71.1732 19.7788 71.2662C18.2972 71.3492 16.9572 70.7845 15.7589 69.5722C14.7762 68.5963 14.1829 67.478 13.9791 66.2171C13.7753 64.9462 13.9381 63.6357 14.4676 62.2856C15.0022 60.9305 15.8807 59.6438 17.103 58.4254C18.3505 57.182 19.6376 56.3153 20.9642 55.8253C22.2908 55.3353 23.5792 55.2244 24.8292 55.4926C26.0793 55.7508 27.2108 56.3829 28.2236 57.389L24.2094 61.39ZM44.0323 62.8105L39.5051 67.3229L29.2033 46.7859L34.9378 41.0701L55.441 51.4391L50.9138 55.9515L36.3726 48.1234L36.2519 48.2438L44.0323 62.8105ZM37.1105 57.5561L45.6217 49.0727L48.7504 52.2116L40.2391 60.695L37.1105 57.5561ZM56.9293 49.9556L41.5268 34.5026L45.7221 30.3211L57.7553 42.3937L64.0029 36.1665L67.3722 39.5469L56.9293 49.9556ZM69.068 37.8566L53.6655 22.4036L64.8026 11.3029L68.1719 14.6833L61.2301 21.6024L63.8774 24.2584L70.2457 17.9108L73.615 21.2912L67.2467 27.6387L69.894 30.2947L76.8056 23.4057L80.1749 26.786L69.068 37.8566Z" fill="white"/>
<defs>
<linearGradient id="paint0_linear_244_2" x1="60.917" y1="61.8518" x2="27.7297" y2="16.8568" gradientUnits="userSpaceOnUse">
<stop stop-color="#FF223E"/>
<stop offset="1" stop-color="#B5182C"/>
</linearGradient>
</defs>
</svg>
